<svg width="84" height="84" viewBox="0 0 84 84" fill="none" xmlns="http://www.w3.org/2000/svg">
<g clip-path="url(#clip0_132_2413)">
<path d="M37.9141 77.3421L37.893 71.9687C37.8689 71.6354 38.0336 71.3206 38.32 71.1488L42.1796 68.8288C42.4647 68.6558 42.821 68.6568 43.1031 68.8354L47.8001 71.3501C48.4605 71.7623 49.3288 71.599 49.7925 70.9722L51.9092 68.1103C52.3731 67.4848 52.2777 66.6049 51.6881 66.0957L47.9112 62.3378C47.6593 62.1212 47.5514 61.7786 47.6323 61.4568L48.7235 57.0862C48.8029 56.7633 49.0608 56.512 49.3825 56.4367L54.5264 54.8886C55.2871 54.713 55.7844 53.9833 55.6694 53.2135L55.1431 49.6922C55.0279 48.9213 54.339 48.3687 53.5603 48.4245L48.1882 48.4454C47.8564 48.4704 47.5388 48.305 47.3684 48.0195L45.0469 44.1577C44.8753 43.8723 44.8787 43.5157 45.0559 43.2325L47.5694 38.5369C47.9831 37.8778 47.8186 37.0095 47.1917 36.5446L44.3309 34.4277C43.7042 33.964 42.826 34.0617 42.315 34.6489L38.5572 38.4259C38.3404 38.6764 37.9993 38.7855 37.6773 38.7033L33.308 37.6131C32.9842 37.5351 32.7342 37.2783 32.6588 36.9554L31.1088 31.808C30.9335 31.0497 30.2037 30.5523 29.4326 30.6676L25.9128 31.1936C25.143 31.3087 24.5878 31.9982 24.6445 32.7741L24.6673 38.1497C24.6895 38.4806 24.5244 38.7994 24.2386 38.9685L20.3791 41.2886C20.0927 41.4617 19.7347 41.4572 19.4541 41.2809L14.756 38.7676C14.0957 38.3553 13.2299 38.5183 12.7636 39.1455L10.6467 42.0062C10.1832 42.6342 10.2809 43.5124 10.8693 44.0218L14.6472 47.7771C14.8967 47.9966 15.0056 48.3363 14.9235 48.6597L13.835 53.0311C13.7529 53.3545 13.4988 53.6052 13.1733 53.6798L8.0296 55.2292C7.27011 55.4046 6.77121 56.1334 6.88643 56.9044L7.41269 60.4257C7.52793 61.1968 8.21809 61.7477 8.99568 61.6934L14.3674 61.6699C14.7007 61.6473 15.017 61.8128 15.1901 62.098L17.509 65.9602C17.6819 66.2441 17.6775 66.6034 17.5027 66.8836L14.988 71.5807C14.5743 72.2398 14.7378 73.1097 15.3643 73.5721L18.2252 75.6901C18.8548 76.1548 19.7301 76.0563 20.2411 75.469L23.9989 71.6906C24.2159 71.4414 24.5569 71.3325 24.8814 71.4141L29.2506 72.5044C29.5737 72.5851 29.8243 72.8379 29.9001 73.1634L31.4497 78.3083C31.6225 79.0684 32.3549 79.5653 33.1248 79.4502L36.6446 78.9242C37.4158 78.8088 37.9683 78.1198 37.9141 77.3421ZM26.3573 61.7086C24.5827 60.3931 23.4251 58.467 23.0984 56.2811C22.7719 54.0964 23.3153 51.9133 24.6281 50.1379C25.9445 48.362 27.8705 47.2031 30.0565 46.8764C32.2411 46.5499 34.4231 47.0947 36.1989 48.4087C37.9771 49.7221 39.1324 51.6513 39.4589 53.836C39.7856 56.0221 39.2444 58.2021 37.9281 59.9793C36.6142 61.7549 34.6866 62.9127 32.5019 63.2392C30.316 63.5659 28.1355 63.0222 26.3573 61.7086Z" fill="#4879F5"/>
<path d="M40.7177 31.8331C41.0073 32.3729 41.6627 32.5963 42.2219 32.349L46.1788 30.9047C46.4188 30.8006 46.6965 30.8378 46.8991 31.0023L49.6364 33.2343C49.8375 33.3978 49.9304 33.6653 49.8753 33.9174L49.2688 38.0516C49.1398 38.6478 49.4898 39.2457 50.076 39.4214L52.749 40.2218C53.3368 40.3996 53.957 40.0942 54.1764 39.5246L55.945 35.7405C56.0403 35.4977 56.2637 35.3262 56.5232 35.3018L60.0361 34.9445C60.2969 34.9197 60.5484 35.0395 60.6894 35.2573L63.2018 38.643C63.5303 39.1576 64.2036 39.3293 64.7384 39.0404L67.1976 37.718C67.736 37.4272 67.9606 36.7717 67.7132 36.2127L66.2714 32.2541C66.1633 32.0147 66.2021 31.7392 66.3678 31.5353L68.5985 28.7992C68.7642 28.5951 69.0262 28.5019 69.2825 28.5589L73.4144 29.166C74.0129 29.2945 74.6097 28.9448 74.784 28.3575L75.5858 25.6855C75.7615 25.0993 75.458 24.4762 74.8871 24.2558L71.103 22.4886C70.8604 22.3944 70.6892 22.1711 70.6632 21.9116L70.3072 18.3986C70.2801 18.1394 70.4045 17.8834 70.6211 17.744L74.0058 15.2343C74.52 14.9032 74.6922 14.2323 74.4028 13.695L73.0794 11.2374C72.7898 10.6988 72.1355 10.4741 71.5767 10.7227L67.6171 12.166C67.38 12.2711 67.1009 12.2342 66.8993 12.0682L64.1608 9.83621C63.9592 9.67023 63.8657 9.40684 63.9203 9.15095L64.5285 5.01888C64.6586 4.4227 64.3063 3.82632 63.72 3.64943L61.048 2.84873C60.4618 2.67314 59.8388 2.97653 59.6195 3.54612L57.8509 7.33026C57.7569 7.57397 57.5346 7.744 57.275 7.76861L53.7622 8.12586C53.5007 8.15467 53.2499 8.03076 53.1091 7.81319L50.5968 4.42746C50.2669 3.91275 49.5948 3.74102 49.06 4.03007L46.6012 5.35361C46.0625 5.64308 45.838 6.29863 46.0838 6.85671L47.5298 10.8173C47.635 11.0545 47.5967 11.3337 47.4308 11.5352L45.1996 14.271C45.034 14.4751 44.769 14.5665 44.5144 14.5114L40.3825 13.9046C39.7854 13.777 39.1887 14.127 39.013 14.713L38.2125 17.3849C38.0358 17.9725 38.3415 18.5938 38.91 18.8147L42.6951 20.5806C42.9364 20.6761 43.109 20.898 43.1327 21.159L43.4899 24.672C43.5159 24.9326 43.3963 25.1853 43.1764 25.3278L39.7928 27.836C39.2784 28.1684 39.1038 28.8384 39.3932 29.3756L40.7177 31.8331ZM51.1874 24.6107C50.3673 23.0855 50.1876 21.3307 50.6852 19.6704C51.1829 18.0103 52.2977 16.6463 53.8238 15.8234C55.3501 15.0031 57.1038 14.8236 58.7626 15.3216C60.424 15.819 61.7882 16.935 62.6095 18.46C63.4312 19.9861 63.6107 21.7398 63.1103 23.399C62.615 25.0575 61.5005 26.4241 59.9745 27.2468C58.448 28.0673 56.6954 28.2453 55.0354 27.7489C53.3763 27.2485 52.01 26.1352 51.1874 24.6107Z" fill="#4879F5"/>
</g>
<defs>
<clipPath id="clip0_132_2413">
<rect width="73.2305" height="73.2305" fill="white" transform="translate(72.4263) rotate(81.5)"/>
</clipPath>
</defs>
</svg>
