<svg width="62" height="62" viewBox="0 0 62 62" fill="none" xmlns="http://www.w3.org/2000/svg">
<g clip-path="url(#clip0_139_69)">
<path d="M20.2468 49.3096L49.3093 20.2471C52.6999 21.0221 56.3812 20.1502 58.9968 17.5346C61.6124 14.919 62.4843 11.2377 61.7093 7.84709L53.2812 16.1783L47.3718 14.6283L45.8218 8.71896L54.2499 0.290835C50.8593 -0.484165 47.178 0.38771 44.5624 3.00333C41.9468 5.61896 41.0749 9.30021 41.8499 12.6908L12.7874 41.7533C9.39679 40.9783 5.71554 41.8502 3.09991 44.4658C-0.968836 48.4377 -0.968836 55.0252 3.00304 58.9971C6.97491 62.969 13.5624 62.969 17.5343 58.9971C20.1499 56.3815 21.0218 52.7002 20.2468 49.3096ZM11.8187 57.6408L5.90929 56.0908L4.35929 50.1815L8.71867 45.8221L14.628 47.3721L16.178 53.2815L11.8187 57.6408Z" fill="#4879F5"/>
<path d="M27.9001 21.2152L22.4751 26.834L17.147 21.3121L22.4751 15.6934L27.9001 21.2152Z" fill="#3E4347"/>
<path d="M16.1779 4.94102L6.68418 14.7254C6.29668 15.1129 6.29668 15.6941 6.68418 15.9848L10.2686 19.666L13.8529 23.3473C14.2404 23.7348 14.7248 23.7348 15.1123 23.3473L24.6061 13.5629C24.9936 13.1754 24.9936 12.5941 24.6061 12.3035L17.4373 4.94102C17.1467 4.55352 16.5654 4.55352 16.1779 4.94102Z" fill="#94989B"/>
<path d="M0.290625 21.3127C-0.096875 21.7002 -0.096875 22.2814 0.290625 22.5721L7.3625 30.0314C7.75 30.4189 8.23438 30.4189 8.62187 30.0314C8.62187 30.0314 10.5594 27.9971 10.6562 27.9002L2.325 19.2783C2.22813 19.2783 0.290625 21.3127 0.290625 21.3127Z" fill="#94989B"/>
<path d="M10.1718 19.7623L6.5874 16.0811C6.5874 16.0811 7.7499 18.1154 4.6499 18.5029C3.39053 18.6967 2.61553 18.8904 2.22803 19.2779L10.5593 27.8998C10.9468 27.4154 11.1405 26.6404 11.3343 25.3811C11.7218 22.1842 13.6593 23.4436 13.6593 23.4436L10.1718 19.7623Z" fill="#3E4347"/>
<path d="M38.3622 4.16585C28.5778 -5.81228 17.8247 5.32835 17.8247 5.32835L24.1216 11.819C24.1216 11.819 30.2247 3.5846 37.8778 5.9096C38.7497 6.20022 39.5247 6.58772 39.8153 6.39397C40.2028 6.10335 39.0403 4.84397 38.3622 4.16585Z" fill="#3E4347"/>
<path d="M25.1877 24.0254L21.7002 27.6098C21.7002 27.6098 23.5408 30.516 26.6408 33.7129C30.0314 37.2004 34.5846 39.2348 39.1377 43.8848C45.9189 50.8598 51.5377 58.416 53.5721 61.2254C54.3471 62.291 54.444 62.1941 55.4127 61.2254L58.319 58.2223L25.1877 24.0254Z" fill="#F2B200"/>
<path d="M25.1875 24.0248L28.675 20.4404C28.675 20.4404 31.4844 22.2811 34.5844 25.4779C37.975 28.9654 39.9125 33.7123 44.4656 38.3623C51.2469 45.3373 58.5125 51.1498 61.3219 53.2811C62.3875 54.0561 62.2906 54.2498 61.3219 55.2186L58.4156 58.2217L25.1875 24.0248Z" fill="#FFCE31"/>
</g>
<defs>
<clipPath id="clip0_139_69">
<rect width="62" height="62" fill="white"/>
</clipPath>
</defs>
</svg>
