<svg width="65" height="65" viewBox="0 0 65 65" fill="none" xmlns="http://www.w3.org/2000/svg">
<g clip-path="url(#clip0_139_53)">
<path d="M24.655 41.4648H2.24121V54.9131H24.655V41.4648Z" fill="#5CB0FF"/>
<path d="M43.7068 6.72363H21.293V20.1719H43.7068V6.72363Z" fill="#5CB0FF"/>
<path d="M62.7585 41.4648H40.3447V54.9131H62.7585V41.4648Z" fill="#D0E8FF"/>
<path d="M38.1035 39.2236V57.1547H65.0001V39.2236H38.1035ZM62.7587 54.9133H40.3449V41.465H62.7587V54.9133Z" fill="#1C71DA"/>
<path d="M56.0344 58.2754H47.0688V60.5168H56.0344V58.2754Z" fill="#1C71DA"/>
<path d="M0 57.1547H26.8965V39.2236H0V57.1547ZM2.24138 41.465H24.6552V54.9133H2.24138V41.465Z" fill="#1C71DA"/>
<path d="M17.9308 58.2754H8.96533V60.5168H17.9308V58.2754Z" fill="#1C71DA"/>
<path d="M45.9483 4.48242H19.0518V22.4135H45.9483V4.48242ZM43.7069 20.1721H21.2931V6.7238H43.7069V20.1721Z" fill="#1C71DA"/>
<path d="M36.9826 23.5342H28.0171V25.7756H36.9826V23.5342Z" fill="#1C71DA"/>
<path d="M14.569 34.7413H50.4311V38.1034H52.6725V34.7413V34.181V32.4999H33.6207V26.8965H31.3794V32.4999H12.3276V34.181V34.7413V38.1034H14.569V34.7413Z" fill="#1C71DA"/>
<path d="M6.79451 14.5199C6.50778 14.5199 6.22103 14.4105 6.00216 14.1917C5.56439 13.754 5.56439 13.0444 6.00216 12.6067L9.96449 8.64452C10.4017 8.20703 11.1115 8.20703 11.5492 8.64452C11.987 9.08229 11.987 9.79189 11.5492 10.2295L7.58687 14.1917C7.36825 14.4105 7.08124 14.5199 6.79451 14.5199Z" fill="#FF5D5D"/>
<path d="M10.7569 14.5191C10.4701 14.5191 10.1831 14.4097 9.96452 14.1909L6.00216 10.2285C5.56439 9.79077 5.56439 9.08132 6.00216 8.64355C6.43936 8.20606 7.14966 8.20606 7.58687 8.64355L11.5492 12.6059C11.987 13.0437 11.987 13.7531 11.5492 14.1909C11.3306 14.4096 11.0436 14.5191 10.7569 14.5191Z" fill="#FF5D5D"/>
<path d="M54.4239 20.1231C52.261 20.1231 50.5015 18.3636 50.5015 16.2007C50.5015 14.0379 52.261 12.2783 54.4239 12.2783C56.5867 12.2783 58.3463 14.0379 58.3463 16.2007C58.3463 18.3636 56.5867 20.1231 54.4239 20.1231ZM54.4239 14.5197C53.4969 14.5197 52.7428 15.2738 52.7428 16.2007C52.7428 17.1277 53.4969 17.8818 54.4239 17.8818C55.3509 17.8818 56.1049 17.1277 56.1049 16.2007C56.1049 15.2738 55.3508 14.5197 54.4239 14.5197Z" fill="#00D40B"/>
<path d="M54.7922 53.3591C54.5054 53.3591 54.2187 53.2496 53.9998 53.0309L50.8298 49.8612C50.6197 49.651 50.5015 49.3659 50.5015 49.0687C50.5015 48.7714 50.6197 48.4863 50.8298 48.2762L53.9998 45.1064C54.4376 44.6689 55.1468 44.6689 55.5845 45.1064L58.7542 48.2762C59.192 48.7139 59.192 49.4234 58.7542 49.8612L55.5845 53.0309C55.3659 53.2496 55.0789 53.3591 54.7922 53.3591ZM53.2072 49.0687L54.7922 50.6535L56.3769 49.0687L54.7922 47.4838L53.2072 49.0687Z" fill="#FFC504"/>
</g>
<defs>
<clipPath id="clip0_139_53">
<rect width="65" height="65" fill="white"/>
</clipPath>
</defs>
</svg>
