<svg width="67" height="67" viewBox="0 0 67 67" fill="none" xmlns="http://www.w3.org/2000/svg">
<path d="M54.8205 12.3377H39.1733V6.70027C39.1733 6.52258 39.1028 6.35216 38.9771 6.22651C38.8515 6.10086 38.681 6.03027 38.5033 6.03027H6.69979C6.52209 6.03027 6.35167 6.10086 6.22602 6.22651C6.10037 6.35216 6.02979 6.52258 6.02979 6.70027C6.02979 6.70831 6.02979 6.71501 6.02979 6.72305V48.5083C6.03243 50.1224 6.66953 51.6709 7.80363 52.8195C8.93774 53.9682 10.4779 54.6249 12.0919 54.6482C12.1 54.6486 12.108 54.6486 12.1161 54.6482H12.1402C12.1536 54.6482 12.1656 54.6482 12.179 54.6482C12.1924 54.6482 12.2045 54.6482 12.2179 54.6482H27.8289V60.3003C27.8289 60.478 27.8995 60.6484 28.0251 60.774C28.1508 60.8997 28.3212 60.9703 28.4989 60.9703H60.2998C60.4775 60.9703 60.6479 60.8997 60.7735 60.774C60.8992 60.6484 60.9698 60.478 60.9698 60.3003V18.4923C60.9673 16.8617 60.3188 15.2985 59.1663 14.1449C58.0138 12.9914 56.4511 12.3416 54.8205 12.3377Z" fill="#F4A74B"/>
<path d="M7.37012 48.5081V7.37012H37.8337V12.3375H23.5613C23.5163 12.3371 23.4714 12.3416 23.4273 12.3509C23.2933 12.3415 23.1593 12.3375 23.0253 12.3375C21.395 12.341 19.8324 12.9904 18.6796 14.1434C17.5269 15.2963 16.8779 16.8591 16.8747 18.4894C16.8747 18.4894 16.99 48.3259 16.99 48.5135C16.9883 49.7814 16.4862 50.9973 15.593 51.8971C14.6997 52.7969 13.4874 53.3078 12.2196 53.3187H12.1405C10.8719 53.3074 9.65898 52.7957 8.76564 51.8948C7.87231 50.994 7.37077 49.7768 7.37012 48.5081Z" fill="#4879F5"/>
<path d="M15.9702 53.3181C16.7017 52.7482 17.2941 52.0195 17.7026 51.187C18.1112 50.3546 18.3253 49.4402 18.3286 48.5129C18.3286 48.3789 18.2134 18.4835 18.2134 18.4862C18.2344 17.2244 18.7505 16.0214 19.6502 15.1366C20.5499 14.2517 21.7614 13.7559 23.0233 13.7559C24.2852 13.7559 25.4967 14.2517 26.3964 15.1366C27.2962 16.0214 27.8122 17.2244 27.8332 18.4862V53.3181H15.9702Z" fill="#4879F5"/>
<path d="M59.6298 59.6299H29.1689V18.4919C29.1687 17.5672 28.9598 16.6544 28.5577 15.8217C28.1556 14.989 27.5707 14.2578 26.8467 13.6826H54.8205C56.0956 13.684 57.318 14.1912 58.2196 15.0928C59.1212 15.9944 59.6284 17.2168 59.6298 18.4919V59.6299Z" fill="white"/>
<path d="M55.1142 49.9004H33.6822C33.5045 49.9004 33.3341 49.971 33.2084 50.0966C33.0828 50.2223 33.0122 50.3927 33.0122 50.5704C33.0122 50.7481 33.0828 50.9185 33.2084 51.0442C33.3341 51.1698 33.5045 51.2404 33.6822 51.2404H55.1142C55.2919 51.2404 55.4623 51.1698 55.5879 51.0442C55.7136 50.9185 55.7842 50.7481 55.7842 50.5704C55.7842 50.3927 55.7136 50.2223 55.5879 50.0966C55.4623 49.971 55.2919 49.9004 55.1142 49.9004Z" fill="#231F20"/>
<path d="M55.1142 42.4668H33.6822C33.5045 42.4668 33.3341 42.5374 33.2084 42.663C33.0828 42.7887 33.0122 42.9591 33.0122 43.1368C33.0122 43.3145 33.0828 43.4849 33.2084 43.6106C33.3341 43.7362 33.5045 43.8068 33.6822 43.8068H55.1142C55.2919 43.8068 55.4623 43.7362 55.5879 43.6106C55.7136 43.4849 55.7842 43.3145 55.7842 43.1368C55.7842 42.9591 55.7136 42.7887 55.5879 42.663C55.4623 42.5374 55.2919 42.4668 55.1142 42.4668Z" fill="#231F20"/>
<path d="M55.1142 35.0488H33.6822C33.5045 35.0488 33.3341 35.1194 33.2084 35.2451C33.0828 35.3707 33.0122 35.5411 33.0122 35.7188C33.0122 35.8965 33.0828 36.0669 33.2084 36.1926C33.3341 36.3182 33.5045 36.3888 33.6822 36.3888H55.1142C55.2919 36.3888 55.4623 36.3182 55.5879 36.1926C55.7136 36.0669 55.7842 35.8965 55.7842 35.7188C55.7842 35.5411 55.7136 35.3707 55.5879 35.2451C55.4623 35.1194 55.2919 35.0488 55.1142 35.0488Z" fill="#231F20"/>
<path d="M55.1142 27.6748H33.6822C33.5045 27.6748 33.3341 27.7454 33.2084 27.871C33.0828 27.9967 33.0122 28.1671 33.0122 28.3448C33.0122 28.5225 33.0828 28.6929 33.2084 28.8186C33.3341 28.9442 33.5045 29.0148 33.6822 29.0148H55.1142C55.2919 29.0148 55.4623 28.9442 55.5879 28.8186C55.7136 28.6929 55.7842 28.5225 55.7842 28.3448C55.7842 28.1671 55.7136 27.9967 55.5879 27.871C55.4623 27.7454 55.2919 27.6748 55.1142 27.6748Z" fill="#231F20"/>
<path d="M55.1142 20.2422H33.6822C33.5045 20.2422 33.3341 20.3128 33.2084 20.4384C33.0828 20.5641 33.0122 20.7345 33.0122 20.9122C33.0122 21.0899 33.0828 21.2603 33.2084 21.3859C33.3341 21.5116 33.5045 21.5822 33.6822 21.5822H55.1142C55.2919 21.5822 55.4623 21.5116 55.5879 21.3859C55.7136 21.2603 55.7842 21.0899 55.7842 20.9122C55.7842 20.7345 55.7136 20.5641 55.5879 20.4384C55.4623 20.3128 55.2919 20.2422 55.1142 20.2422Z" fill="#231F20"/>
</svg>
