<svg width="62" height="62" viewBox="0 0 62 62" fill="none" xmlns="http://www.w3.org/2000/svg">
<g clip-path="url(#clip0_141_90)">
<path d="M47.174 33.6957H39.087C37.9709 33.6957 37.0652 32.7907 37.0652 31.6739V18.1957C37.0652 14.8512 34.3445 12.1304 31 12.1304C27.6555 12.1304 24.9348 14.8512 24.9348 18.1957V31.6739C24.9348 32.7907 24.0291 33.6957 22.913 33.6957H14.826C13.7099 33.6957 12.8042 32.7907 12.8042 31.6739V18.1957C12.8044 8.16269 20.9665 0 31.0001 0C41.0337 0 49.1958 8.16269 49.1958 18.1957V31.6739C49.1958 32.7907 48.2901 33.6957 47.174 33.6957Z" fill="#4879F5"/>
<path d="M37.0652 18.1957V31.6739C37.0652 32.7907 37.9709 33.6957 39.087 33.6957H47.174C48.2901 33.6957 49.1958 32.7907 49.1958 31.6739V18.1957C49.1957 8.16269 41.0336 0 31 0V12.1304C34.3445 12.1304 37.0652 14.8512 37.0652 18.1957Z" fill="#4879F5"/>
<path d="M47.1737 62.0001H14.826C11.4815 62.0001 8.76074 59.2794 8.76074 55.9349V35.7176C8.76074 32.3731 11.4815 29.6523 14.826 29.6523H47.1737C50.5182 29.6523 53.239 32.3731 53.239 35.7176V55.935C53.239 59.2794 50.5182 62.0001 47.1737 62.0001Z" fill="#E79D2E"/>
<path d="M53.2391 55.9349V35.7176C53.2391 32.3731 50.5184 29.6523 47.1739 29.6523H31V62.0001H47.1739C50.5184 62.0001 53.2391 59.2794 53.2391 55.9349Z" fill="#D8842A"/>
<path d="M30.9998 53.9128C29.8837 53.9128 28.978 53.0079 28.978 51.891V43.804C28.978 42.6872 29.8837 41.7822 30.9998 41.7822C32.1159 41.7822 33.0216 42.6872 33.0216 43.804V51.891C33.0216 53.0079 32.1159 53.9128 30.9998 53.9128Z" fill="#6E6057"/>
<path d="M31 45.8261C28.7703 45.8261 26.9565 44.0124 26.9565 41.7827C26.9565 39.553 28.7703 37.7393 31 37.7393C33.2297 37.7393 35.0434 39.553 35.0434 41.7827C35.0434 44.0124 33.2297 45.8261 31 45.8261Z" fill="#6E6057"/>
<path d="M33.0218 51.891V43.804C33.0218 42.6872 32.1161 41.7822 31 41.7822V53.9127C32.1161 53.9127 33.0218 53.0077 33.0218 51.891Z" fill="#615349"/>
<path d="M31 45.8263C33.2297 45.8263 35.0434 44.0125 35.0434 41.7828C35.0434 39.5531 33.2297 37.7393 31 37.7393V45.8263Z" fill="#615349"/>
</g>
<defs>
<clipPath id="clip0_141_90">
<rect width="62" height="62" fill="white"/>
</clipPath>
</defs>
</svg>
